<?xml version="1.0" standalone="no"?>
<!DOCTYPE svg PUBLIC "-//W3C//DTD SVG 20010904//EN"
 "http://www.w3.org/TR/2001/REC-SVG-20010904/DTD/svg10.dtd">
<svg version="1.0" xmlns="http://www.w3.org/2000/svg"
 width="977.000000pt" height="977.000000pt" viewBox="0 0 977.000000 977.000000"
 preserveAspectRatio="xMidYMid meet">

<g transform="translate(0.000000,977.000000) scale(0.100000,-0.100000)"
fill="#000000" stroke="none">
<path d="M4500 9755 c-192 -16 -306 -31 -473 -61 -1517 -272 -2809 -1237
-3505 -2619 -467 -928 -623 -1983 -446 -3025 275 -1618 1377 -3008 2901 -3659
936 -399 1999 -493 3003 -265 787 178 1526 559 2145 1105 182 160 471 464 581
610 10 14 58 77 105 140 239 316 465 720 617 1104 373 942 444 1982 202 2970
-212 865 -656 1652 -1290 2285 -762 760 -1711 1232 -2785 1385 -306 44 -747
56 -1055 30z m1530 -2901 c0 -3 -271 -283 -602 -622 -331 -339 -683 -700 -783
-802 -99 -102 -192 -195 -207 -208 l-26 -22 -830 2 -831 3 807 827 807 828
833 0 c457 0 832 -2 832 -6z m785 -524 c3 -5 2 -10 -4 -10 -5 0 -13 5 -16 10
-3 6 -2 10 4 10 5 0 13 -4 16 -10z m290 -182 c-61 -62 -205 -210 -321 -328
-116 -118 -396 -406 -624 -640 -227 -234 -422 -433 -432 -442 -18 -16 -70 -17
-751 -13 -403 3 -750 5 -771 5 l-39 0 199 203 c109 111 446 455 748 765 l549
562 776 0 776 0 -110 -112z m-118 -630 c-3 -8 -6 -5 -6 6 -1 11 2 17 5 13 3
-3 4 -12 1 -19z m-387 -18 c0 -5 -5 -10 -11 -10 -5 0 -7 5 -4 10 3 6 8 10 11
10 2 0 4 -4 4 -10z m-53 -262 c-3 -8 -6 -5 -6 6 -1 11 2 17 5 13 3 -3 4 -12 1
-19z m1067 -143 c4 -10 -1 -15 -16 -15 -17 0 -18 2 -8 15 7 8 14 15 15 15 2 0
5 -7 9 -15z m2080 -70 c-6 -16 -24 -21 -24 -7 0 11 11 22 21 22 5 0 6 -7 3
-15z m-1974 -405 c0 -5 -5 -10 -11 -10 -5 0 -7 5 -4 10 3 6 8 10 11 10 2 0 4
-4 4 -10z m-4209 -604 c75 -23 121 -51 178 -107 60 -61 81 -98 106 -184 21
-72 24 -218 6 -295 -27 -112 -113 -234 -194 -276 -123 -64 -313 -62 -444 4
-51 27 -130 114 -155 172 -79 184 -59 415 49 557 34 44 124 102 192 124 68 22
198 24 262 5z m3120 -2 c76 -23 131 -58 185 -117 83 -93 113 -180 114 -332 0
-146 -35 -245 -118 -336 -61 -67 -140 -106 -239 -118 -184 -22 -344 43 -422
173 -60 100 -66 127 -66 286 1 136 2 149 29 212 65 156 204 246 382 247 46 1
103 -6 135 -15z m-791 -5 c25 -5 64 -17 87 -27 l43 -17 0 -101 0 -102 -86 44
c-54 28 -93 42 -105 39 -11 -4 -19 -2 -19 4 0 7 -28 11 -74 11 -59 0 -79 -4
-107 -23 -38 -25 -51 -76 -27 -104 21 -25 86 -50 177 -67 149 -28 250 -98 271
-187 25 -105 -8 -220 -83 -284 -74 -64 -132 -79 -297 -80 -135 0 -151 2 -232
30 l-88 29 0 103 c0 71 4 103 12 103 6 0 40 -16 75 -36 87 -49 154 -67 250
-68 68 -1 86 2 110 20 33 25 42 74 19 109 -16 24 -101 55 -223 81 -67 14 -156
65 -191 108 -33 43 -47 125 -34 197 20 109 92 181 212 213 64 17 244 20 310 5z
m-3168 -31 c70 -33 112 -87 129 -166 15 -74 0 -161 -37 -209 -24 -32 -91 -87
-116 -95 -6 -2 55 -87 136 -188 80 -102 146 -188 146 -191 0 -4 -19 -5 -42 -4
-24 2 -84 3 -133 4 l-90 1 -124 165 c-122 164 -123 165 -162 165 l-39 0 0
-165 0 -165 -110 0 -110 0 0 441 0 441 248 -4 c243 -3 248 -3 304 -30z m1498
-328 l0 -360 185 0 185 0 0 -80 0 -80 -87 0 c-49 0 -181 -3 -295 -7 l-208 -6
-2 384 c-2 211 -1 412 0 447 l4 62 109 0 109 0 0 -360z m700 0 l0 -360 185 0
185 0 0 -80 0 -80 -295 0 -295 0 0 440 0 440 110 0 110 0 0 -360z m2610 118
c73 -134 136 -247 141 -252 5 -6 9 94 9 242 l0 252 95 0 95 0 0 -440 0 -440
-102 0 -103 0 -164 300 c-91 165 -167 300 -170 300 -3 0 -5 -135 -5 -300 l2
-300 -37 0 c-20 0 -66 -3 -103 -7 l-68 -6 0 447 0 446 139 0 138 0 133 -242z
m-6060 -298 c0 -5 -5 -10 -11 -10 -5 0 -7 5 -4 10 3 6 8 10 11 10 2 0 4 -4 4
-10z m4070 -679 c0 -6 -4 -13 -10 -16 -5 -3 -10 1 -10 9 0 9 5 16 10 16 6 0
10 -4 10 -9z m760 -21 c0 -5 -4 -10 -10 -10 -5 0 -10 5 -10 10 0 6 5 10 10 10
6 0 10 -4 10 -10z m-1810 -44 c0 -3 -4 -8 -10 -11 -5 -3 -10 -1 -10 4 0 6 5
11 10 11 6 0 10 -2 10 -4z m4130 -36 c0 -5 -2 -10 -4 -10 -3 0 -8 5 -11 10 -3
6 -1 10 4 10 6 0 11 -4 11 -10z m-640 -56 c0 -8 -5 -12 -10 -9 -6 4 -8 11 -5
16 9 14 15 11 15 -7z m-3810 -54 c0 -5 -2 -10 -4 -10 -3 0 -8 5 -11 10 -3 6
-1 10 4 10 6 0 11 -4 11 -10z m-1932 -186 c27 -18 31 -81 6 -91 -13 -5 -12 -8
5 -25 28 -25 26 -64 -4 -93 -21 -22 -33 -25 -90 -25 l-65 0 0 125 0 125 63 0
c40 0 70 -5 85 -16z m212 -4 c0 -17 -7 -20 -50 -20 -49 0 -50 -1 -50 -30 0
-28 2 -30 40 -30 33 0 40 -3 40 -20 0 -17 -7 -20 -40 -20 -39 0 -40 -1 -40
-35 l0 -35 50 0 c43 0 50 -3 50 -20 0 -18 -7 -20 -75 -20 l-75 0 0 125 0 125
75 0 c68 0 75 -2 75 -20z m156 6 c26 -19 11 -31 -39 -31 -32 0 -42 -4 -45 -18
-3 -12 9 -22 40 -36 58 -25 72 -43 64 -86 -11 -57 -69 -81 -131 -53 -27 12
-29 16 -17 35 6 10 15 10 39 1 39 -15 65 -5 61 24 -2 14 -14 25 -33 31 -16 5
-38 16 -47 25 -25 21 -23 77 2 102 24 24 77 27 106 6z m214 -6 c0 -16 -7 -20
-30 -20 l-30 0 0 -105 c0 -100 -1 -105 -21 -105 -25 0 -60 31 -41 38 8 2 12
30 12 88 l0 84 -35 0 c-28 0 -35 4 -35 20 0 19 7 20 90 20 83 0 90 -1 90 -20z
m279 5 c57 -29 78 -122 40 -184 l-20 -34 27 -28 28 -29 -36 0 c-27 0 -37 5
-41 20 -4 16 -14 20 -47 20 -101 0 -158 93 -114 186 28 59 102 81 163 49z
m141 -71 c0 -104 9 -124 55 -124 46 0 55 20 55 124 0 85 0 86 25 86 25 0 25
-1 25 -81 0 -92 -17 -140 -56 -158 -54 -24 -120 -4 -142 44 -7 14 -12 64 -12
110 0 84 0 85 25 85 25 0 25 -1 25 -86z m346 -41 l43 -123 -23 0 c-18 0 -27 8
-35 30 -9 27 -14 30 -55 30 -40 0 -45 -3 -55 -30 -7 -23 -16 -30 -35 -30 l-25
0 35 98 c56 158 54 153 82 150 22 -3 30 -16 68 -125z m114 22 l0 -105 40 0
c33 0 40 -3 40 -20 0 -18 -7 -20 -64 -20 -35 0 -66 4 -68 10 -1 5 -2 61 0 125
3 114 3 115 28 115 24 0 24 0 24 -105z m160 -4 c0 -60 3 -116 6 -125 5 -12 0
-16 -20 -16 l-26 0 0 125 c0 118 1 125 20 125 19 0 20 -7 20 -109z m210 89 c0
-16 -7 -20 -30 -20 l-30 0 0 -105 0 -105 -25 0 -25 0 0 105 0 105 -35 0 c-28
0 -35 4 -35 20 0 19 7 20 90 20 83 0 90 -1 90 -20z m76 -17 c33 -84 29 -83 57
-20 22 48 30 57 52 57 l25 0 -40 -80 c-29 -58 -40 -92 -40 -125 0 -38 -3 -45
-20 -45 -15 0 -20 7 -21 28 -3 60 -9 83 -43 151 l-36 71 25 0 c21 0 29 -8 41
-37z m290 -63 c3 -121 -2 -150 -27 -150 -18 0 -19 8 -19 126 0 124 0 125 22
122 21 -3 22 -8 24 -98z m133 31 c75 -101 78 -102 78 -28 1 96 1 97 23 97 19
0 20 -7 20 -125 0 -116 -1 -125 -19 -125 -12 0 -40 28 -78 80 -32 43 -61 79
-65 80 -5 0 -8 -36 -8 -80 0 -73 -2 -80 -20 -80 -19 0 -20 7 -20 125 0 116 1
125 19 125 12 0 38 -26 70 -69z m391 54 c36 -19 60 -62 60 -110 0 -83 -50
-125 -150 -125 l-60 0 0 125 0 125 60 0 c35 0 74 -7 90 -15z m240 -5 c0 -17
-7 -20 -50 -20 -49 0 -50 -1 -50 -30 0 -28 2 -30 40 -30 33 0 40 -3 40 -20 0
-17 -7 -20 -40 -20 -39 0 -40 -1 -40 -35 l0 -35 50 0 c43 0 50 -3 50 -20 0
-18 -7 -20 -75 -20 l-75 0 0 125 0 125 75 0 c68 0 75 -2 75 -20z m156 6 c26
-19 11 -31 -39 -31 -32 0 -42 -4 -45 -18 -3 -12 9 -22 42 -36 52 -23 70 -50
61 -92 -12 -52 -71 -74 -130 -47 -27 12 -29 16 -17 35 6 10 15 10 39 1 74 -28
88 28 16 63 -43 21 -48 28 -51 61 -2 27 2 41 19 57 26 24 76 28 105 7z m104
-64 c0 -43 5 -83 11 -89 8 -8 8 -17 0 -31 -6 -11 -8 -28 -5 -36 5 -12 0 -16
-19 -16 -23 0 -25 4 -29 48 -1 26 -2 82 0 125 3 68 6 77 23 77 17 0 19 -8 19
-78z m225 66 c42 -19 24 -33 -37 -30 -50 3 -57 1 -77 -23 -27 -35 -27 -85 0
-119 16 -20 29 -26 60 -26 34 0 39 3 39 24 0 15 -7 26 -20 29 -11 3 -20 12
-20 21 0 12 10 16 40 16 l40 0 0 -55 c0 -50 -2 -56 -26 -65 -86 -33 -183 27
-184 113 0 93 99 155 185 115z m162 -68 c32 -43 61 -79 66 -80 4 0 7 36 7 80
0 73 2 80 20 80 19 0 20 -7 20 -125 0 -116 -1 -125 -19 -125 -12 0 -40 28 -78
80 -32 43 -61 79 -65 80 -5 0 -8 -36 -8 -80 0 -73 -2 -80 -20 -80 -19 0 -20 7
-20 125 0 116 1 125 19 125 12 0 40 -28 78 -80z m359 66 c26 -19 11 -31 -39
-31 -32 0 -42 -4 -45 -18 -3 -12 9 -22 42 -36 52 -23 70 -50 61 -92 -12 -52
-71 -74 -130 -47 -27 12 -29 16 -17 35 6 10 15 10 39 1 74 -28 88 28 16 63
-43 21 -48 28 -51 61 -2 27 2 41 19 57 26 24 76 28 105 7z m240 -17 c76 -72
38 -202 -63 -216 -75 -10 -133 43 -133 122 0 46 23 90 58 110 38 21 107 14
138 -16z m124 -74 l0 -105 40 0 c33 0 40 -3 40 -20 0 -18 -7 -20 -65 -20 l-65
0 0 125 0 125 25 0 25 0 0 -105z m150 19 c0 -104 9 -124 55 -124 46 0 55 20
55 124 0 85 0 86 25 86 25 0 25 -1 25 -81 0 -92 -17 -140 -56 -158 -54 -24
-120 -4 -142 44 -7 14 -12 64 -12 110 0 84 0 85 25 85 25 0 25 -1 25 -86z
m350 66 c0 -16 -7 -20 -30 -20 l-30 0 0 -105 0 -105 -25 0 -25 0 0 105 0 105
-35 0 c-28 0 -35 4 -35 20 0 19 7 20 90 20 83 0 90 -1 90 -20z m80 -105 c0
-118 -1 -125 -20 -125 -19 0 -20 7 -20 125 0 118 1 125 20 125 19 0 20 -7 20
-125z m229 99 c84 -71 49 -207 -56 -221 -100 -13 -166 93 -118 187 32 62 121
79 174 34z m168 -54 c32 -43 61 -79 66 -80 4 0 7 36 7 80 0 73 2 80 20 80 19
0 20 -7 20 -125 0 -116 -1 -125 -19 -125 -12 0 -40 28 -78 80 -32 43 -61 79
-65 80 -5 0 -8 -36 -8 -80 0 -73 -2 -80 -20 -80 -19 0 -20 7 -20 125 0 116 1
125 19 125 12 0 40 -28 78 -80z m279 66 c26 -19 11 -31 -39 -31 -32 0 -42 -4
-45 -18 -3 -12 9 -22 42 -36 52 -23 70 -50 61 -92 -12 -52 -71 -74 -130 -47
-27 12 -29 16 -17 35 6 10 15 10 39 1 74 -28 88 28 16 63 -43 21 -48 28 -51
61 -2 27 2 41 19 57 26 24 76 28 105 7z m-4716 -306 c0 -5 -5 -10 -11 -10 -5
0 -7 5 -4 10 3 6 8 10 11 10 2 0 4 -4 4 -10z m2850 -257 c0 -19 -3 -24 -10
-17 -6 6 -8 18 -4 27 9 24 14 21 14 -10z m-2710 -333 c0 -5 -4 -10 -10 -10 -5
0 -10 5 -10 10 0 6 5 10 10 10 6 0 10 -4 10 -10z m1810 -1050 c0 -11 -4 -20
-10 -20 -5 0 -10 9 -10 20 0 11 5 20 10 20 6 0 10 -9 10 -20z"/>
<path d="M3308 3840 c-20 -11 -48 -35 -62 -52 -56 -75 -73 -253 -35 -367 25
-72 82 -141 120 -142 13 0 33 -2 44 -4 74 -14 162 56 191 152 35 119 12 312
-45 369 -63 63 -145 80 -213 44z"/>
<path d="M6435 3843 c-91 -47 -127 -130 -126 -289 0 -98 33 -193 86 -244 32
-31 40 -34 99 -34 87 0 137 32 174 112 24 51 27 69 27 172 0 65 -6 133 -13
157 -33 111 -157 174 -247 126z"/>
<path d="M2340 3730 l0 -120 81 0 c81 0 81 0 120 39 33 32 39 45 39 79 0 91
-42 122 -164 122 l-76 0 0 -120z"/>
<path d="M2090 2340 c0 -27 3 -30 34 -30 21 0 36 6 40 15 10 28 -5 45 -40 45
-31 0 -34 -3 -34 -30z"/>
<path d="M2090 2235 c0 -36 0 -36 38 -33 34 3 37 6 37 33 0 27 -3 30 -37 33
-38 3 -38 3 -38 -33z"/>
<path d="M2954 2362 c-43 -29 -43 -125 0 -154 20 -14 73 -8 87 9 8 9 14 39 14
68 0 29 -6 59 -14 68 -14 17 -67 23 -87 9z"/>
<path d="M3448 2310 l-16 -50 33 0 34 0 -16 48 c-9 26 -17 48 -18 49 -1 2 -8
-20 -17 -47z"/>
<path d="M4810 2285 l0 -85 39 0 c49 0 71 26 71 85 0 59 -22 85 -71 85 l-39 0
0 -85z"/>
<path d="M6266 2348 c-9 -12 -16 -41 -16 -63 0 -55 22 -85 63 -85 38 0 50 7
66 37 20 40 9 104 -23 125 -24 16 -75 8 -90 -14z"/>
<path d="M7206 2348 c-9 -12 -16 -41 -16 -63 0 -55 22 -85 63 -85 38 0 50 7
66 37 20 40 9 104 -23 125 -24 16 -75 8 -90 -14z"/>
</g>
</svg>
